<svg width="20" height="20" viewBox="0 0 20 20" fill="none" xmlns="http://www.w3.org/2000/svg">
<path d="M5.80004 1.66675C6.14798 1.66675 6.43004 1.92505 6.43004 2.24367V3.40744C6.98885 3.39752 7.61522 3.39752 8.31999 3.39752H8.32002H11.68H11.68C12.3848 3.39752 13.0111 3.39752 13.57 3.40744V2.24367C13.57 1.92505 13.852 1.66675 14.2 1.66675C14.5479 1.66675 14.8299 1.92505 14.8299 2.24367V3.45848C16.039 3.54714 16.8327 3.76473 17.4158 4.29873C17.9989 4.83273 18.2365 5.55957 18.3333 6.66675V7.50008H1.66666V6.66675C1.76348 5.55957 2.00108 4.83273 2.5842 4.29873C3.16732 3.76473 3.96103 3.54714 5.17005 3.45848V2.24367C5.17005 1.92505 5.45211 1.66675 5.80004 1.66675Z" fill="#0E1C36" fill-opacity="0.6"/>
<path opacity="0.5" d="M18.3333 11.6667V10C18.3333 9.3008 18.3228 8.05439 18.312 7.5H1.67155C1.6608 8.05439 1.67136 9.3008 1.67136 10V11.6667C1.67136 14.8094 1.67136 16.3807 2.6474 17.357C3.62344 18.3333 5.19434 18.3333 8.33615 18.3333H11.6685C14.8104 18.3333 16.3813 18.3333 17.3573 17.357C18.3333 16.3807 18.3333 14.8094 18.3333 11.6667Z" fill="#0E1C36" fill-opacity="0.6"/>
<path fill-rule="evenodd" clip-rule="evenodd" d="M15.625 13.75C14.5895 13.75 13.75 14.5895 13.75 15.625C13.75 16.6605 14.5895 17.5 15.625 17.5C16.6605 17.5 17.5 16.6605 17.5 15.625C17.5 14.5895 16.6605 13.75 15.625 13.75ZM12.5 15.625C12.5 13.8991 13.8991 12.5 15.625 12.5C17.3509 12.5 18.75 13.8991 18.75 15.625C18.75 16.2619 18.5595 16.8543 18.2323 17.3484L19.4003 18.5164C19.6444 18.7605 19.6444 19.1562 19.4003 19.4003C19.1562 19.6444 18.7605 19.6444 18.5164 19.4003L17.3484 18.2323C16.8543 18.5595 16.2619 18.75 15.625 18.75C13.8991 18.75 12.5 17.3509 12.5 15.625Z" fill="#0E1C36" fill-opacity="0.6"/>
</svg>
