<svg width="20" height="20" viewBox="0 0 20 20" fill="none" xmlns="http://www.w3.org/2000/svg">
<path d="M10.9218 18.3334H9.07835C6.20622 18.3334 4.77016 18.3334 3.79094 17.4902C2.81172 16.6471 2.60863 15.2356 2.20245 12.4128L1.97014 10.7983C1.65394 8.60076 1.49584 7.50199 1.94622 6.56254C2.3966 5.62308 3.35524 5.05203 5.27251 3.90992L6.42654 3.22247C8.16762 2.18532 9.03816 1.66675 10.0001 1.66675C10.962 1.66675 11.8325 2.18532 13.5736 3.22247L14.7277 3.90992C16.6449 5.05203 17.6036 5.62308 18.0539 6.56254C18.5043 7.50199 18.3462 8.60076 18.03 10.7983L17.7977 12.4128C17.3915 15.2356 17.1884 16.6471 16.2092 17.4902C15.23 18.3334 13.7939 18.3334 10.9218 18.3334Z" fill="#0E1C36" fill-opacity="0.6"/>
<path d="M6.875 15C6.875 14.6548 7.15482 14.375 7.5 14.375H12.5C12.8452 14.375 13.125 14.6548 13.125 15C13.125 15.3452 12.8452 15.625 12.5 15.625H7.5C7.15482 15.625 6.875 15.3452 6.875 15Z" fill="white"/>
</svg>
