<svg width="20" height="20" viewBox="0 0 20 20" fill="none" xmlns="http://www.w3.org/2000/svg">
<path opacity="0.5" d="M11.6697 3.33325H8.33025C5.18174 3.33325 3.60749 3.33325 2.62937 4.30956C1.89718 5.04041 1.71309 6.10469 1.6668 7.91195C1.66087 8.14366 1.85101 8.32881 2.07564 8.38756C2.79228 8.57497 3.32101 9.22582 3.32101 9.99992C3.32101 10.774 2.79228 11.4249 2.07563 11.6123C1.85101 11.671 1.66087 11.8562 1.6668 12.0879C1.71309 13.8951 1.89718 14.9594 2.62937 15.6903C3.60749 16.6666 5.18174 16.6666 8.33025 16.6666H11.6697C14.8183 16.6666 16.3925 16.6666 17.3706 15.6903C18.1028 14.9594 18.2869 13.8951 18.3332 12.0879C18.3391 11.8562 18.149 11.671 17.9244 11.6123C17.2077 11.4249 16.679 10.774 16.679 9.99992C16.679 9.22582 17.2077 8.57497 17.9244 8.38756C18.149 8.32881 18.3391 8.14366 18.3332 7.91195C18.2869 6.10469 18.1028 5.04041 17.3706 4.30956C16.3925 3.33325 14.8183 3.33325 11.6697 3.33325Z" fill="#0E1C36" fill-opacity="0.6"/>
<path d="M10.7952 8.49906L10.7132 8.35209C10.3959 7.78403 10.2373 7.5 10.0001 7.5C9.76299 7.5 9.60437 7.78403 9.28712 8.35209L9.20505 8.49906C9.11489 8.66048 9.06982 8.7412 8.99954 8.79445C8.92925 8.84771 8.84172 8.86748 8.66666 8.90701L8.50727 8.94301C7.89122 9.08214 7.58319 9.1517 7.50991 9.38693C7.43662 9.62216 7.64661 9.86727 8.0666 10.3575L8.17526 10.4843C8.29461 10.6236 8.35428 10.6933 8.38112 10.7794C8.40797 10.8656 8.39895 10.9585 8.3809 11.1444L8.36448 11.3136C8.30098 11.9676 8.26923 12.2947 8.46109 12.4401C8.65295 12.5854 8.94136 12.4529 9.51817 12.1878L9.51818 12.1878L9.6674 12.1192C9.83132 12.0439 9.91327 12.0062 10.0001 12.0062C10.087 12.0062 10.169 12.0439 10.3329 12.1192L10.4821 12.1878L10.4821 12.1878C11.0589 12.4529 11.3473 12.5854 11.5392 12.4401C11.7311 12.2947 11.6993 11.9676 11.6358 11.3136L11.6194 11.1444C11.6013 10.9585 11.5923 10.8656 11.6192 10.7794C11.646 10.6933 11.7057 10.6236 11.825 10.4843L11.9337 10.3575C12.3537 9.86727 12.5637 9.62216 12.4904 9.38693C12.4171 9.1517 12.1091 9.08214 11.493 8.94301L11.3336 8.90701C11.1586 8.86748 11.071 8.84771 11.0008 8.79445C10.9305 8.7412 10.8854 8.66048 10.7952 8.49906Z" fill="#0E1C36" fill-opacity="0.6"/>
</svg>
